<svg width="1326" height="208" viewBox="0 0 1326 208" fill="none" xmlns="http://www.w3.org/2000/svg">
<path d="M76.2 160.234L111.76 52.284H149.606L97.536 193H54.356L2.54 52.284H40.64L76.2 160.234ZM325.802 122.642C325.802 108.079 328.765 95.3793 334.692 84.542C340.619 73.5353 348.831 65.0687 359.33 59.142C369.829 53.046 381.851 49.998 395.398 49.998C412.839 49.998 427.233 54.4007 438.578 63.206C450.093 71.842 457.797 84.034 461.692 99.782H423.338C421.306 93.686 417.835 88.9447 412.924 85.558C408.183 82.002 402.256 80.224 395.144 80.224C384.984 80.224 376.941 83.9493 371.014 91.4C365.087 98.6813 362.124 109.095 362.124 122.642C362.124 136.019 365.087 146.433 371.014 153.884C376.941 161.165 384.984 164.806 395.144 164.806C409.537 164.806 418.935 158.371 423.338 145.502H461.692C457.797 160.742 450.093 172.849 438.578 181.824C427.063 190.799 412.67 195.286 395.398 195.286C381.851 195.286 369.829 192.323 359.33 186.396C348.831 180.3 340.619 171.833 334.692 160.996C328.765 149.989 325.802 137.205 325.802 122.642ZM478.599 122.134C478.599 107.91 481.393 95.2947 486.981 84.288C492.738 73.2813 500.443 64.8147 510.095 58.888C519.916 52.9613 530.838 49.998 542.861 49.998C553.359 49.998 562.503 52.1147 570.293 56.348C578.251 60.5813 584.601 65.9153 589.343 72.35V52.284H625.157V193H589.343V172.426C584.771 179.03 578.421 184.533 570.293 188.936C562.334 193.169 553.105 195.286 542.607 195.286C530.753 195.286 519.916 192.238 510.095 186.142C500.443 180.046 492.738 171.495 486.981 160.488C481.393 149.312 478.599 136.527 478.599 122.134ZM589.343 122.642C589.343 114.006 587.649 106.64 584.263 100.544C580.876 94.2787 576.304 89.5373 570.547 86.32C564.789 82.9333 558.609 81.24 552.005 81.24C545.401 81.24 539.305 82.8487 533.717 86.066C528.129 89.2833 523.557 94.0247 520.001 100.29C516.614 106.386 514.921 113.667 514.921 122.134C514.921 130.601 516.614 138.051 520.001 144.486C523.557 150.751 528.129 155.577 533.717 158.964C539.474 162.351 545.57 164.044 552.005 164.044C558.609 164.044 564.789 162.435 570.547 159.218C576.304 155.831 580.876 151.09 584.263 144.994C587.649 138.729 589.343 131.278 589.343 122.642ZM695.447 72.858C700.019 66.0847 706.285 60.5813 714.243 56.348C722.371 52.1147 731.6 49.998 741.929 49.998C753.952 49.998 764.789 52.9613 774.441 58.888C784.263 64.8147 791.967 73.2813 797.555 84.288C803.313 95.1253 806.191 107.741 806.191 122.134C806.191 136.527 803.313 149.312 797.555 160.488C791.967 171.495 784.263 180.046 774.441 186.142C764.789 192.238 753.952 195.286 741.929 195.286C731.431 195.286 722.202 193.254 714.243 189.19C706.454 184.957 700.189 179.538 695.447 172.934V193H659.887V5.04H695.447V72.858ZM769.869 122.134C769.869 113.667 768.091 106.386 764.535 100.29C761.149 94.0247 756.577 89.2833 750.819 86.066C745.231 82.8487 739.135 81.24 732.531 81.24C726.097 81.24 720.001 82.9333 714.243 86.32C708.655 89.5373 704.083 94.2787 700.527 100.544C697.141 106.809 695.447 114.175 695.447 122.642C695.447 131.109 697.141 138.475 700.527 144.74C704.083 151.005 708.655 155.831 714.243 159.218C720.001 162.435 726.097 164.044 732.531 164.044C739.135 164.044 745.231 162.351 750.819 158.964C756.577 155.577 761.149 150.751 764.535 144.486C768.091 138.221 769.869 130.77 769.869 122.134ZM822.888 122.134C822.888 107.91 825.682 95.2947 831.27 84.288C837.027 73.2813 844.732 64.8147 854.384 58.888C864.205 52.9613 875.127 49.998 887.15 49.998C897.649 49.998 906.793 52.1147 914.582 56.348C922.541 60.5813 928.891 65.9153 933.632 72.35V52.284H969.446V193H933.632V172.426C929.06 179.03 922.71 184.533 914.582 188.936C906.623 193.169 897.395 195.286 886.896 195.286C875.043 195.286 864.205 192.238 854.384 186.142C844.732 180.046 837.027 171.495 831.27 160.488C825.682 149.312 822.888 136.527 822.888 122.134ZM933.632 122.642C933.632 114.006 931.939 106.64 928.552 100.544C925.165 94.2787 920.593 89.5373 914.836 86.32C909.079 82.9333 902.898 81.24 896.294 81.24C889.69 81.24 883.594 82.8487 878.006 86.066C872.418 89.2833 867.846 94.0247 864.29 100.29C860.903 106.386 859.21 113.667 859.21 122.134C859.21 130.601 860.903 138.051 864.29 144.486C867.846 150.751 872.418 155.577 878.006 158.964C883.763 162.351 889.859 164.044 896.294 164.044C902.898 164.044 909.079 162.435 914.836 159.218C920.593 155.831 925.165 151.09 928.552 144.994C931.939 138.729 933.632 131.278 933.632 122.642ZM1082.15 50.252C1098.92 50.252 1112.47 55.586 1122.79 66.254C1133.12 76.7527 1138.29 91.4847 1138.29 110.45V193H1102.73V115.276C1102.73 104.1 1099.93 95.5487 1094.35 89.622C1088.76 83.526 1081.14 80.478 1071.49 80.478C1061.67 80.478 1053.88 83.526 1048.12 89.622C1042.53 95.5487 1039.74 104.1 1039.74 115.276V193H1004.18V52.284H1039.74V69.81C1044.48 63.714 1050.49 58.9727 1057.77 55.586C1065.22 52.03 1073.35 50.252 1082.15 50.252ZM1255.42 193L1207.66 133.056V193H1172.1V5.04H1207.66V111.974L1254.91 52.284H1301.14L1239.16 122.896L1301.64 193H1255.42Z" fill="#6A7D98"/>
<path d="M285.639 68.3811C271.863 54.5934 253.548 47 234.067 47C216.507 47 199.801 53.2189 186.581 64.5939L172.436 50.6959L169.603 98.7469L218.45 95.1346L204.589 82.2948C212.979 75.7072 223.287 72.1238 234.067 72.1238C260.442 72.1238 281.9 93.6008 281.9 120C281.9 146.399 260.442 167.877 234.067 167.877C221.958 167.877 210.406 163.338 201.537 155.098C192.716 146.899 187.337 135.796 186.392 123.832L186.08 119.892H161L161.271 124.424C163.571 162.878 195.546 193 234.067 193C253.548 193 271.863 185.407 285.639 171.619C299.413 157.831 307 139.499 307 120C307 100.501 299.413 82.1689 285.639 68.3811V68.3811Z" fill="#00CDCD"/>
</svg>
