<svg width="190" height="33" viewBox="0 0 190 33" fill="none" xmlns="http://www.w3.org/2000/svg" id="logo">
<path d="M10.7247 22.9861L15.9022 7.10779H21.4125L13.8312 27.8057H7.54429L0 7.10779H5.54728L10.7247 22.9861ZM47.0662 17.4567C47.0662 15.3147 47.4976 13.4467 48.3606 11.8526C49.2235 10.2336 50.4192 8.98829 51.9478 8.11653C53.4765 7.21987 55.2268 6.77154 57.1993 6.77154C59.7386 6.77154 61.8344 7.41914 63.4862 8.7143C65.1627 9.98457 66.2844 11.7779 66.8515 14.0943H61.2673C60.9714 13.1976 60.466 12.5002 59.751 12.0021C59.0607 11.479 58.1978 11.2175 57.1623 11.2175C55.683 11.2175 54.512 11.7654 53.649 12.8613C52.786 13.9324 52.3546 15.4641 52.3546 17.4567C52.3546 19.4243 52.786 20.9561 53.649 22.0521C54.512 23.1231 55.683 23.6586 57.1623 23.6586C59.2579 23.6586 60.6262 22.7121 61.2673 20.8192H66.8515C66.2844 23.0608 65.1627 24.8417 63.4862 26.1618C61.8096 27.4819 59.714 28.1419 57.1993 28.1419C55.2268 28.1419 53.4765 27.7061 51.9478 26.8343C50.4192 25.9376 49.2235 24.6922 48.3606 23.0982C47.4976 21.4792 47.0662 19.5988 47.0662 17.4567ZM69.3131 17.382C69.3131 15.2898 69.7199 13.4342 70.5335 11.8152C71.3717 10.1963 72.4936 8.95093 73.8989 8.07917C75.3288 7.20742 76.919 6.77154 78.6695 6.77154C80.198 6.77154 81.5294 7.08289 82.6636 7.70556C83.8223 8.32824 84.7468 9.11281 85.4372 10.0593V7.10779H90.6517V27.8057H85.4372V24.7794C84.7716 25.7508 83.847 26.5602 82.6636 27.2079C81.5048 27.8305 80.161 28.1419 78.6326 28.1419C76.9066 28.1419 75.3288 27.6936 73.8989 26.7969C72.4936 25.9003 71.3717 24.6425 70.5335 23.0235C69.7199 21.3796 69.3131 19.4991 69.3131 17.382ZM85.4372 17.4567C85.4372 16.1865 85.1906 15.103 84.6976 14.2063C84.2044 13.2848 83.5388 12.5874 82.7006 12.1141C81.8622 11.616 80.9624 11.3669 80.0009 11.3669C79.0394 11.3669 78.1518 11.6035 77.3382 12.0768C76.5246 12.55 75.8589 13.2474 75.3412 14.169C74.848 15.0656 74.6015 16.1366 74.6015 17.382C74.6015 18.6274 74.848 19.7232 75.3412 20.6697C75.8589 21.5913 76.5246 22.3011 77.3382 22.7993C78.1764 23.2975 79.064 23.5465 80.0009 23.5465C80.9624 23.5465 81.8622 23.3099 82.7006 22.8367C83.5388 22.3385 84.2044 21.6411 84.6976 20.7445C85.1906 19.823 85.4372 18.727 85.4372 17.4567ZM100.886 10.134C101.551 9.13773 102.464 8.32824 103.622 7.70556C104.806 7.08289 106.15 6.77154 107.653 6.77154C109.404 6.77154 110.982 7.20742 112.387 8.07917C113.817 8.95093 114.939 10.1963 115.752 11.8152C116.591 13.4093 117.01 15.2649 117.01 17.382C117.01 19.4991 116.591 21.3796 115.752 23.0235C114.939 24.6425 113.817 25.9003 112.387 26.7969C110.982 27.6936 109.404 28.1419 107.653 28.1419C106.125 28.1419 104.781 27.843 103.622 27.2452C102.488 26.6226 101.576 25.8255 100.886 24.8542V27.8057H95.7083V0.158691H100.886V10.134ZM111.721 17.382C111.721 16.1366 111.463 15.0656 110.945 14.169C110.452 13.2474 109.786 12.55 108.948 12.0768C108.134 11.6035 107.247 11.3669 106.285 11.3669C105.348 11.3669 104.461 11.616 103.622 12.1141C102.809 12.5874 102.143 13.2848 101.625 14.2063C101.132 15.1279 100.886 16.2113 100.886 17.4567C100.886 18.7021 101.132 19.7856 101.625 20.7071C102.143 21.6286 102.809 22.3385 103.622 22.8367C104.461 23.3099 105.348 23.5465 106.285 23.5465C107.247 23.5465 108.134 23.2975 108.948 22.7993C109.786 22.3011 110.452 21.5913 110.945 20.6697C111.463 19.7482 111.721 18.6523 111.721 17.382ZM119.441 17.382C119.441 15.2898 119.848 13.4342 120.661 11.8152C121.499 10.1963 122.621 8.95093 124.027 8.07917C125.457 7.20742 127.047 6.77154 128.797 6.77154C130.326 6.77154 131.657 7.08289 132.791 7.70556C133.95 8.32824 134.875 9.11281 135.565 10.0593V7.10779H140.779V27.8057H135.565V24.7794C134.899 25.7508 133.975 26.5602 132.791 27.2079C131.632 27.8305 130.289 28.1419 128.76 28.1419C127.035 28.1419 125.457 27.6936 124.027 26.7969C122.621 25.9003 121.499 24.6425 120.661 23.0235C119.848 21.3796 119.441 19.4991 119.441 17.382ZM135.565 17.4567C135.565 16.1865 135.318 15.103 134.825 14.2063C134.332 13.2848 133.666 12.5874 132.828 12.1141C131.99 11.616 131.09 11.3669 130.129 11.3669C129.167 11.3669 128.28 11.6035 127.466 12.0768C126.652 12.55 125.987 13.2474 125.469 14.169C124.976 15.0656 124.729 16.1366 124.729 17.382C124.729 18.6274 124.976 19.7232 125.469 20.6697C125.987 21.5913 126.652 22.3011 127.466 22.7993C128.304 23.2975 129.192 23.5465 130.129 23.5465C131.09 23.5465 131.99 23.3099 132.828 22.8367C133.666 22.3385 134.332 21.6411 134.825 20.7445C135.318 19.823 135.565 18.727 135.565 17.4567ZM157.189 6.80891C159.63 6.80891 161.603 7.59348 163.106 9.16263C164.61 10.7069 165.363 12.8738 165.363 15.6634V27.8057H160.185V16.3733C160.185 14.7294 159.778 13.4716 158.965 12.5998C158.151 11.7032 157.042 11.2548 155.637 11.2548C154.207 11.2548 153.073 11.7032 152.234 12.5998C151.42 13.4716 151.014 14.7294 151.014 16.3733V27.8057H145.837V7.10779H151.014V9.68568C151.704 8.78903 152.579 8.09163 153.639 7.59348C154.724 7.07043 155.908 6.80891 157.189 6.80891ZM182.417 27.8057L175.463 18.9885V27.8057H170.285V0.158691H175.463V15.8876L182.342 7.10779H189.073L180.049 17.4941L189.146 27.8057H182.417Z" fill="white"/>
<path id="logo-replay" d="M44.385 17.0157C44.4008 14.1634 43.305 11.4881 41.2993 9.48244C39.4915 7.67458 37.1247 6.60146 34.5806 6.42351L34.5698 3.52174L29.2805 8.22776L34.6851 12.881L34.5935 10.1185C36.1425 10.2971 37.5764 10.9857 38.6863 12.0955C41.4016 14.8109 41.377 19.2539 38.6313 21.9996C35.8856 24.7453 31.4425 24.77 28.7272 22.0546C27.4805 20.808 26.7633 19.1466 26.7072 17.3764C26.6518 15.6155 27.2528 13.9069 28.3999 12.5653L28.7776 12.1234L26.1955 9.54131L25.752 10.0406C21.9893 14.2769 22.1483 20.7018 26.1142 24.6676C28.1198 26.6732 30.7951 27.7691 33.6475 27.7533C36.4996 27.7373 39.1874 26.6118 41.2154 24.5837C43.2435 22.5557 44.3691 19.8679 44.385 17.0157Z" fill="#00CCCC" stroke="#00CBCB"/>
</svg>
